<svg width="7" height="7" viewBox="0 0 7 7" fill="none" xmlns="http://www.w3.org/2000/svg">
<path d="M3.50028 0C1.57033 0 0 1.56955 0 3.49999C0 5.42967 1.57033 7 3.50028 7C5.43045 7 7.00068 5.42967 7.00068 3.49999C7.00068 1.56955 5.43045 0 3.50028 0ZM3.50028 6.22021C2.00013 6.22021 0.779803 4.99995 0.779803 3.50001C0.779803 1.99942 2.00013 0.779175 3.50028 0.779175C5.00059 0.779175 6.22092 1.99944 6.22092 3.50001C6.2209 4.99995 5.00058 6.22021 3.50028 6.22021Z" fill="#8F8F8F"/>
<path d="M4.64877 4.13407C4.42517 4.51778 4.00938 4.75581 3.56369 4.75581C2.87158 4.75581 2.30782 4.19218 2.30782 3.50005C2.30782 2.80735 2.87158 2.24353 3.56369 2.24353C4.0094 2.24353 4.42517 2.48243 4.64877 2.86538L4.67767 2.91542H5.52126L5.47062 2.77961C5.32383 2.39072 5.06626 2.06006 4.7253 1.82406C4.38349 1.58744 3.98198 1.46191 3.56369 1.46191C2.44004 1.46191 1.52625 2.37649 1.52625 3.50005C1.52625 4.62369 2.44004 5.5374 3.56369 5.5374C3.98198 5.5374 4.38347 5.41229 4.7253 5.17531C5.06626 4.93925 5.32383 4.60871 5.47062 4.21982L5.52126 4.08393H4.67767L4.64877 4.13407Z" fill="#8F8F8F"/>
</svg>
