<svg width="104" height="48" viewBox="0 0 104 48" fill="none" xmlns="http://www.w3.org/2000/svg">
<g clip-path="url(#clip0)">
<path d="M12.4809 10.0238V13.3644H4.15956V23.3864H0V0H12.4809V3.34067H4.15956V10.0238H12.4809V3.34067H16.6404V10.0238H12.4809Z" fill="#2F2F2F"/>
<path d="M20.8 20.0458V10.0238H24.9595V13.3645H33.2787V10.0238H37.4404V16.7051H24.9595V20.0458H20.8ZM24.9595 10.0238V6.68134H33.2787V10.0238H24.9595ZM24.9595 23.3864V20.0458H37.4404V23.3864H24.9595Z" fill="#2F2F2F"/>
<path d="M41.6 6.68134H62.4V10.0238H54.0786V23.3864H49.9191V10.0238H41.6V6.68134Z" fill="#2F2F2F"/>
<path d="M79.0382 20.0458V23.3864H70.7191V30.0696H66.5596V6.68134H79.0382V10.0238H70.7191V20.0458H79.0382V10.0238H83.2V20.0458H79.0382Z" fill="#2F2F2F"/>
<path d="M87.3596 20.0458V10.0238H91.5191V20.0458H87.3596ZM91.5191 10.0238V6.68134H99.8449V10.0238H91.5191ZM91.5191 23.3864V20.0458H99.8449V23.3864H91.5191ZM99.8449 20.0458V10.0238H104.007V20.0458H99.8449Z" fill="#2F2F2F"/>
<path d="M10.4 44.6593V27.9542H14.5662V44.6593H10.4ZM14.5662 27.9542V24.6136H22.8875V27.9542H14.5662ZM14.5662 48V44.6593H22.8875V48H14.5662ZM22.8875 44.6593V37.978H18.7191V34.6373H27.0404V44.6593H22.8875ZM22.8875 31.2949V27.9542H27.0471V31.2949H22.8875Z" fill="#2F2F2F"/>
<path d="M31.2 37.978V34.6373H35.3596V37.978H31.2ZM31.2 44.6593V41.3187H35.3596V44.6593H31.2ZM35.3596 34.6373V31.2949H43.6787V34.6373H35.3596ZM35.3596 48V44.6593H43.6787V41.3187H35.3596V37.978H43.6787V34.6373H47.8405V48H35.3596Z" fill="#2F2F2F"/>
<path d="M52 48V31.2949H60.3147V34.6373H56.1596V48H52ZM60.3191 48V34.6373H64.4787V48H60.3191ZM64.4787 34.6373V31.2949H68.6404V34.6373H64.4787ZM68.6404 48V34.6373H72.8V48H68.6404Z" fill="#2F2F2F"/>
<path d="M76.9707 44.6593V34.6373H81.1302V37.978H89.4493V34.6373H93.6111V41.3187H81.1302V44.6593H76.9707ZM81.1302 34.6373V31.2949H89.4493V34.6373H81.1302ZM81.1302 48V44.6593H93.6111V48H81.1302Z" fill="#2F2F2F"/>
</g>
<defs>
<clipPath id="clip0">
<rect width="104" height="48" fill="white"/>
</clipPath>
</defs>
</svg>
