<svg width="15" height="15" viewBox="0 0 15 15" fill="none" xmlns="http://www.w3.org/2000/svg">
<path d="M14.8291 14.0045L11.1683 10.3438C12.0783 9.24965 12.6265 7.84447 12.6265 6.31356C12.6265 2.83221 9.79433 0 6.31315 0C2.83205 0 0 2.83221 0 6.31348C0 9.79451 2.83205 12.6266 6.31315 12.6266C7.84414 12.6266 9.24932 12.0784 10.3435 11.1685L14.0044 14.8292C14.1183 14.9431 14.2676 15 14.4168 15C14.5661 15 14.7153 14.9431 14.8291 14.8292C15.057 14.6014 15.057 14.2321 14.8291 14.0045ZM1.16638 6.31348C1.16638 3.47536 3.47519 1.16638 6.31315 1.16638C9.15119 1.16638 11.4601 3.47536 11.4601 6.31348C11.4601 9.15137 9.15119 11.4602 6.31315 11.4602C3.47519 11.4602 1.16638 9.15137 1.16638 6.31348Z" fill="black"/>
</svg>
