<svg width="21" height="17" viewBox="0 0 21 17" fill="none" xmlns="http://www.w3.org/2000/svg">
<path d="M20.6154 1.98294C19.8488 2.31923 19.0319 2.54213 18.1802 2.65037C19.0563 2.12725 19.7251 1.30521 20.0394 0.314385C19.2226 0.801423 18.3206 1.14544 17.3594 1.33742C16.5838 0.511519 15.4783 0 14.2723 0C11.9324 0 10.0487 1.89919 10.0487 4.22744C10.0487 4.56244 10.0771 4.88456 10.1466 5.19121C6.633 5.01985 3.52394 3.33583 1.43535 0.7705C1.07071 1.40313 0.856827 2.12725 0.856827 2.90677C0.856827 4.37046 1.61058 5.66794 2.73412 6.41912C2.0551 6.40623 1.38896 6.2091 0.824615 5.89858C0.824615 5.91146 0.824615 5.92821 0.824615 5.94496C0.824615 7.99877 2.2896 9.70469 4.21069 10.0977C3.86667 10.1917 3.49173 10.2368 3.10262 10.2368C2.83204 10.2368 2.55888 10.2214 2.30248 10.1647C2.85008 11.8384 4.40396 13.0689 6.25162 13.1088C4.81369 14.2336 2.98794 14.9114 1.01144 14.9114C0.664846 14.9114 0.332423 14.8959 0 14.8534C1.87213 16.0607 4.09087 16.75 6.48354 16.75C14.2607 16.75 18.5126 10.3077 18.5126 4.7235C18.5126 4.53667 18.5062 4.35629 18.4972 4.17719C19.3359 3.58192 20.0407 2.83848 20.6154 1.98294Z" fill="#C8C8C8"/>
</svg>
