<svg width="25" height="17" viewBox="0 0 25 17" fill="none" xmlns="http://www.w3.org/2000/svg">
<path d="M23.7797 14.3399C23.4998 15.3801 22.6797 16.1999 21.6398 16.48C19.7398 17 12.1397 17 12.1397 17C12.1397 17 4.53987 17 2.63986 16.4999C1.61993 16.22 0.779862 15.3799 0.499964 14.3399C0 12.4401 0 8.50006 0 8.50006C0 8.50006 0 4.54017 0.499964 2.66017C0.780047 1.62023 1.59992 0.800169 2.64005 0.520086C4.55988 0.000115819 12.1399 0.000115819 12.1399 0.000115819C12.1399 0.000115819 19.7398 0.000115819 21.6398 0.500265C22.6799 0.780163 23.4998 1.60022 23.7799 2.64016C24.2798 4.54017 24.2798 8.48005 24.2798 8.48005C24.2798 8.48005 24.2998 12.4401 23.7797 14.3399Z" fill="#C8C8C8"/>
<path d="M9.71973 4.86007L16.0396 8.50006L9.71973 12.14V4.86007Z" fill="#313131"/>
</svg>
